<svg class="lds-spinner" width="100%" height="100%" xmlns="http://www.w3.org/2000/svg" xmlns:xlink="http://www.w3.org/1999/xlink" viewBox="0 0 100 100" preserveAspectRatio="xMidYMid"><g transform="rotate(0 50 50)">
  <rect x="49" y="1.5" rx="4.41" ry="0.135" width="2" height="13" fill="#e2d810">
    <animate attributeName="opacity" values="1;0" keyTimes="0;1" dur="1.4s" begin="-1.362162162162162s" repeatCount="indefinite"></animate>
  </rect>
</g><g transform="rotate(9.72972972972973 50 50)">
  <rect x="49" y="1.5" rx="4.41" ry="0.135" width="2" height="13" fill="#e2d810">
    <animate attributeName="opacity" values="1;0" keyTimes="0;1" dur="1.4s" begin="-1.3243243243243243s" repeatCount="indefinite"></animate>
  </rect>
</g><g transform="rotate(19.45945945945946 50 50)">
  <rect x="49" y="1.5" rx="4.41" ry="0.135" width="2" height="13" fill="#e2d810">
    <animate attributeName="opacity" values="1;0" keyTimes="0;1" dur="1.4s" begin="-1.2864864864864862s" repeatCount="indefinite"></animate>
  </rect>
</g><g transform="rotate(29.18918918918919 50 50)">
  <rect x="49" y="1.5" rx="4.41" ry="0.135" width="2" height="13" fill="#e2d810">
    <animate attributeName="opacity" values="1;0" keyTimes="0;1" dur="1.4s" begin="-1.2486486486486486s" repeatCount="indefinite"></animate>
  </rect>
</g><g transform="rotate(38.91891891891892 50 50)">
  <rect x="49" y="1.5" rx="4.41" ry="0.135" width="2" height="13" fill="#e2d810">
    <animate attributeName="opacity" values="1;0" keyTimes="0;1" dur="1.4s" begin="-1.2108108108108107s" repeatCount="indefinite"></animate>
  </rect>
</g><g transform="rotate(48.648648648648646 50 50)">
  <rect x="49" y="1.5" rx="4.41" ry="0.135" width="2" height="13" fill="#e2d810">
    <animate attributeName="opacity" values="1;0" keyTimes="0;1" dur="1.4s" begin="-1.172972972972973s" repeatCount="indefinite"></animate>
  </rect>
</g><g transform="rotate(58.37837837837838 50 50)">
  <rect x="49" y="1.5" rx="4.41" ry="0.135" width="2" height="13" fill="#e2d810">
    <animate attributeName="opacity" values="1;0" keyTimes="0;1" dur="1.4s" begin="-1.135135135135135s" repeatCount="indefinite"></animate>
  </rect>
</g><g transform="rotate(68.10810810810811 50 50)">
  <rect x="49" y="1.5" rx="4.41" ry="0.135" width="2" height="13" fill="#e2d810">
    <animate attributeName="opacity" values="1;0" keyTimes="0;1" dur="1.4s" begin="-1.0972972972972972s" repeatCount="indefinite"></animate>
  </rect>
</g><g transform="rotate(77.83783783783784 50 50)">
  <rect x="49" y="1.5" rx="4.41" ry="0.135" width="2" height="13" fill="#e2d810">
    <animate attributeName="opacity" values="1;0" keyTimes="0;1" dur="1.4s" begin="-1.0594594594594593s" repeatCount="indefinite"></animate>
  </rect>
</g><g transform="rotate(87.56756756756756 50 50)">
  <rect x="49" y="1.5" rx="4.41" ry="0.135" width="2" height="13" fill="#e2d810">
    <animate attributeName="opacity" values="1;0" keyTimes="0;1" dur="1.4s" begin="-1.0216216216216216s" repeatCount="indefinite"></animate>
  </rect>
</g><g transform="rotate(97.29729729729729 50 50)">
  <rect x="49" y="1.5" rx="4.41" ry="0.135" width="2" height="13" fill="#e2d810">
    <animate attributeName="opacity" values="1;0" keyTimes="0;1" dur="1.4s" begin="-0.9837837837837837s" repeatCount="indefinite"></animate>
  </rect>
</g><g transform="rotate(107.02702702702703 50 50)">
  <rect x="49" y="1.5" rx="4.41" ry="0.135" width="2" height="13" fill="#e2d810">
    <animate attributeName="opacity" values="1;0" keyTimes="0;1" dur="1.4s" begin="-0.9459459459459459s" repeatCount="indefinite"></animate>
  </rect>
</g><g transform="rotate(116.75675675675676 50 50)">
  <rect x="49" y="1.5" rx="4.41" ry="0.135" width="2" height="13" fill="#e2d810">
    <animate attributeName="opacity" values="1;0" keyTimes="0;1" dur="1.4s" begin="-0.9081081081081079s" repeatCount="indefinite"></animate>
  </rect>
</g><g transform="rotate(126.48648648648648 50 50)">
  <rect x="49" y="1.5" rx="4.41" ry="0.135" width="2" height="13" fill="#e2d810">
    <animate attributeName="opacity" values="1;0" keyTimes="0;1" dur="1.4s" begin="-0.8702702702702702s" repeatCount="indefinite"></animate>
  </rect>
</g><g transform="rotate(136.21621621621622 50 50)">
  <rect x="49" y="1.5" rx="4.41" ry="0.135" width="2" height="13" fill="#e2d810">
    <animate attributeName="opacity" values="1;0" keyTimes="0;1" dur="1.4s" begin="-0.8324324324324324s" repeatCount="indefinite"></animate>
  </rect>
</g><g transform="rotate(145.94594594594594 50 50)">
  <rect x="49" y="1.5" rx="4.41" ry="0.135" width="2" height="13" fill="#e2d810">
    <animate attributeName="opacity" values="1;0" keyTimes="0;1" dur="1.4s" begin="-0.7945945945945946s" repeatCount="indefinite"></animate>
  </rect>
</g><g transform="rotate(155.67567567567568 50 50)">
  <rect x="49" y="1.5" rx="4.41" ry="0.135" width="2" height="13" fill="#e2d810">
    <animate attributeName="opacity" values="1;0" keyTimes="0;1" dur="1.4s" begin="-0.7567567567567568s" repeatCount="indefinite"></animate>
  </rect>
</g><g transform="rotate(165.40540540540542 50 50)">
  <rect x="49" y="1.5" rx="4.41" ry="0.135" width="2" height="13" fill="#e2d810">
    <animate attributeName="opacity" values="1;0" keyTimes="0;1" dur="1.4s" begin="-0.7189189189189189s" repeatCount="indefinite"></animate>
  </rect>
</g><g transform="rotate(175.13513513513513 50 50)">
  <rect x="49" y="1.5" rx="4.41" ry="0.135" width="2" height="13" fill="#e2d810">
    <animate attributeName="opacity" values="1;0" keyTimes="0;1" dur="1.4s" begin="-0.681081081081081s" repeatCount="indefinite"></animate>
  </rect>
</g><g transform="rotate(184.86486486486487 50 50)">
  <rect x="49" y="1.5" rx="4.41" ry="0.135" width="2" height="13" fill="#e2d810">
    <animate attributeName="opacity" values="1;0" keyTimes="0;1" dur="1.4s" begin="-0.6432432432432431s" repeatCount="indefinite"></animate>
  </rect>
</g><g transform="rotate(194.59459459459458 50 50)">
  <rect x="49" y="1.5" rx="4.41" ry="0.135" width="2" height="13" fill="#e2d810">
    <animate attributeName="opacity" values="1;0" keyTimes="0;1" dur="1.4s" begin="-0.6054054054054053s" repeatCount="indefinite"></animate>
  </rect>
</g><g transform="rotate(204.32432432432432 50 50)">
  <rect x="49" y="1.5" rx="4.41" ry="0.135" width="2" height="13" fill="#e2d810">
    <animate attributeName="opacity" values="1;0" keyTimes="0;1" dur="1.4s" begin="-0.5675675675675675s" repeatCount="indefinite"></animate>
  </rect>
</g><g transform="rotate(214.05405405405406 50 50)">
  <rect x="49" y="1.5" rx="4.41" ry="0.135" width="2" height="13" fill="#e2d810">
    <animate attributeName="opacity" values="1;0" keyTimes="0;1" dur="1.4s" begin="-0.5297297297297296s" repeatCount="indefinite"></animate>
  </rect>
</g><g transform="rotate(223.78378378378378 50 50)">
  <rect x="49" y="1.5" rx="4.41" ry="0.135" width="2" height="13" fill="#e2d810">
    <animate attributeName="opacity" values="1;0" keyTimes="0;1" dur="1.4s" begin="-0.49189189189189186s" repeatCount="indefinite"></animate>
  </rect>
</g><g transform="rotate(233.51351351351352 50 50)">
  <rect x="49" y="1.5" rx="4.41" ry="0.135" width="2" height="13" fill="#e2d810">
    <animate attributeName="opacity" values="1;0" keyTimes="0;1" dur="1.4s" begin="-0.45405405405405397s" repeatCount="indefinite"></animate>
  </rect>
</g><g transform="rotate(243.24324324324326 50 50)">
  <rect x="49" y="1.5" rx="4.41" ry="0.135" width="2" height="13" fill="#e2d810">
    <animate attributeName="opacity" values="1;0" keyTimes="0;1" dur="1.4s" begin="-0.4162162162162162s" repeatCount="indefinite"></animate>
  </rect>
</g><g transform="rotate(252.97297297297297 50 50)">
  <rect x="49" y="1.5" rx="4.41" ry="0.135" width="2" height="13" fill="#e2d810">
    <animate attributeName="opacity" values="1;0" keyTimes="0;1" dur="1.4s" begin="-0.3783783783783784s" repeatCount="indefinite"></animate>
  </rect>
</g><g transform="rotate(262.7027027027027 50 50)">
  <rect x="49" y="1.5" rx="4.41" ry="0.135" width="2" height="13" fill="#e2d810">
    <animate attributeName="opacity" values="1;0" keyTimes="0;1" dur="1.4s" begin="-0.3405405405405405s" repeatCount="indefinite"></animate>
  </rect>
</g><g transform="rotate(272.43243243243245 50 50)">
  <rect x="49" y="1.5" rx="4.41" ry="0.135" width="2" height="13" fill="#e2d810">
    <animate attributeName="opacity" values="1;0" keyTimes="0;1" dur="1.4s" begin="-0.30270270270270266s" repeatCount="indefinite"></animate>
  </rect>
</g><g transform="rotate(282.1621621621622 50 50)">
  <rect x="49" y="1.5" rx="4.41" ry="0.135" width="2" height="13" fill="#e2d810">
    <animate attributeName="opacity" values="1;0" keyTimes="0;1" dur="1.4s" begin="-0.2648648648648648s" repeatCount="indefinite"></animate>
  </rect>
</g><g transform="rotate(291.8918918918919 50 50)">
  <rect x="49" y="1.5" rx="4.41" ry="0.135" width="2" height="13" fill="#e2d810">
    <animate attributeName="opacity" values="1;0" keyTimes="0;1" dur="1.4s" begin="-0.22702702702702698s" repeatCount="indefinite"></animate>
  </rect>
</g><g transform="rotate(301.6216216216216 50 50)">
  <rect x="49" y="1.5" rx="4.41" ry="0.135" width="2" height="13" fill="#e2d810">
    <animate attributeName="opacity" values="1;0" keyTimes="0;1" dur="1.4s" begin="-0.1891891891891892s" repeatCount="indefinite"></animate>
  </rect>
</g><g transform="rotate(311.35135135135135 50 50)">
  <rect x="49" y="1.5" rx="4.41" ry="0.135" width="2" height="13" fill="#e2d810">
    <animate attributeName="opacity" values="1;0" keyTimes="0;1" dur="1.4s" begin="-0.15135135135135133s" repeatCount="indefinite"></animate>
  </rect>
</g><g transform="rotate(321.0810810810811 50 50)">
  <rect x="49" y="1.5" rx="4.41" ry="0.135" width="2" height="13" fill="#e2d810">
    <animate attributeName="opacity" values="1;0" keyTimes="0;1" dur="1.4s" begin="-0.11351351351351349s" repeatCount="indefinite"></animate>
  </rect>
</g><g transform="rotate(330.81081081081084 50 50)">
  <rect x="49" y="1.5" rx="4.41" ry="0.135" width="2" height="13" fill="#e2d810">
    <animate attributeName="opacity" values="1;0" keyTimes="0;1" dur="1.4s" begin="-0.07567567567567567s" repeatCount="indefinite"></animate>
  </rect>
</g><g transform="rotate(340.5405405405405 50 50)">
  <rect x="49" y="1.5" rx="4.41" ry="0.135" width="2" height="13" fill="#e2d810">
    <animate attributeName="opacity" values="1;0" keyTimes="0;1" dur="1.4s" begin="-0.03783783783783783s" repeatCount="indefinite"></animate>
  </rect>
</g><g transform="rotate(350.27027027027026 50 50)">
  <rect x="49" y="1.5" rx="4.41" ry="0.135" width="2" height="13" fill="#e2d810">
    <animate attributeName="opacity" values="1;0" keyTimes="0;1" dur="1.4s" begin="0s" repeatCount="indefinite"></animate>
  </rect>
</g></svg>